<?xml version="1.0" encoding="UTF-8"?>
<svg width="35px" height="35px" viewBox="0 0 35 35" version="1.1" xmlns="http://www.w3.org/2000/svg" xmlns:xlink="http://www.w3.org/1999/xlink">
    <!-- Generator: Sketch 48.2 (47327) - http://www.bohemiancoding.com/sketch -->
    <title>Shape</title>
    <desc>Created with Sketch.</desc>
    <defs></defs>
    <g id="Mobile-INICIAL" stroke="none" stroke-width="1" fill="none" fill-rule="evenodd" transform="translate(-143.000000, -367.000000)" fill-opacity="0.699999988">
        <g id="Apresentação" transform="translate(0.000000, -47.000000)" fill="#FFFFFF" fill-rule="nonzero">
            <path d="M160.5,449 C150.835017,449 143,441.164983 143,431.5 C143,421.835017 150.835017,414 160.5,414 C170.164983,414 178,421.835017 178,431.5 C178,441.164983 170.164983,449 160.5,449 Z M161.206355,423.085398 C161.089456,422.971719 160.900437,422.971349 160.783318,423.085398 L153.092188,430.57497 C152.81267,430.845659 153.231947,431.251981 153.510873,430.981292 L160.496215,424.202216 C160.61082,424.090995 160.703726,424.129617 160.703726,424.292185 L160.703726,439.708647 C160.703726,439.869557 160.841077,440 160.999826,440 C161.163357,440 161.295925,439.871216 161.295925,439.708647 L161.295925,424.292185 C161.295925,424.131276 161.386877,424.089091 161.503453,424.202216 L168.489371,430.981292 C168.768297,431.251981 169.186982,430.845659 168.908056,430.57497 L161.206355,423.085398 Z" id="Shape" transform="translate(160.500000, 431.500000) rotate(-180.000000) translate(-160.500000, -431.500000) "></path>
        </g>
    </g>
</svg>