<?xml version="1.0" encoding="UTF-8"?>
<svg width="74px" height="23px" viewBox="0 0 74 23" version="1.1" xmlns="http://www.w3.org/2000/svg" xmlns:xlink="http://www.w3.org/1999/xlink">
    <!-- Generator: Sketch 48.2 (47327) - http://www.bohemiancoding.com/sketch -->
    <title>Logotipo Grapps</title>
    <desc>Created with Sketch.</desc>
    <defs></defs>
    <g id="Mobile-INICIAL" stroke="none" stroke-width="1" fill="none" fill-rule="evenodd" transform="translate(-123.000000, -10.000000)">
        <g id="Menu-homepage" transform="translate(29.000000, 10.000000)" fill="#FFFFFF">
            <g id="Logotipo-Grapps" transform="translate(94.000000, 0.000000)">
                <path d="M30.9573755,15.8088975 C31.8670224,15.8088975 32.7175886,15.5855276 33.5090996,15.1387811 L33.5090996,12.383858 L31.0991379,12.383858 C30.9337476,12.383858 30.7949399,12.3218108 30.6827107,12.1977145 C30.5704816,12.0736183 30.5143678,11.924705 30.5143678,11.7509702 C30.5143678,11.5772355 30.5734349,11.4283222 30.6915709,11.304226 C30.8097068,11.1801297 30.9455612,11.1180825 31.0991379,11.1180825 L33.9698276,11.1180825 C34.1588451,11.1180825 34.3212797,11.1894368 34.457136,11.3321475 C34.5929924,11.4748582 34.6609195,11.6516927 34.6609195,11.8626563 L34.6609195,15.3063102 C34.6609195,15.5296835 34.6107125,15.7251321 34.5102969,15.8926621 C34.4098814,16.060192 34.2769804,16.181184 34.11159,16.2556418 C33.0247391,16.8264846 31.9201844,17.1119017 30.7978927,17.1119017 C29.2739387,17.1119017 28.0453431,16.6031147 27.112069,15.5855254 C26.1787948,14.5679361 25.706258,13.2587402 25.6944444,11.6578985 C25.6944444,10.0446472 26.1847014,8.71063246 27.1652299,7.65581429 C28.098504,6.66304424 29.2916594,6.16666667 30.7447318,6.16666667 C31.5716836,6.16666667 32.2686753,6.2721469 32.835728,6.48311054 C33.4027806,6.69407417 33.9107577,6.9546724 34.3596743,7.26491304 C34.5486919,7.37659967 34.6431992,7.53792238 34.6431992,7.74888601 C34.6431992,7.95984965 34.5929922,8.12737708 34.4925766,8.25147334 C34.3921611,8.37556959 34.2651668,8.43761679 34.11159,8.43761679 C33.9580133,8.43761679 33.8339724,8.41279791 33.7394636,8.36315941 C32.8061895,7.79231663 31.8552092,7.50689953 30.8864943,7.50689953 C29.7642026,7.50689953 28.8427558,7.86677327 28.1221264,8.58653155 C27.3778698,9.34351871 27.0116538,10.3672975 27.0234674,11.6578985 C27.0234674,12.8616322 27.3660566,13.8481826 28.0512452,14.6175794 C28.7718746,15.4117955 29.740575,15.8088975 30.9573755,15.8088975 Z M38.1340996,10.4665804 C38.8192882,9.51103925 39.5812538,9.03327584 40.4200192,9.03327584 L40.4909004,9.03327584 C40.6681043,9.03327584 40.8187254,9.09842539 40.9427682,9.22872646 C41.066811,9.35902753 41.1288314,9.5234526 41.1288314,9.72200661 C41.1288314,9.92056062 41.0638576,10.078781 40.933908,10.1966724 C40.8039585,10.3145639 40.6444773,10.3735087 40.4554598,10.3735087 L40.3845785,10.3735087 C39.9002211,10.3735087 39.4690313,10.4976031 39.0909962,10.7457956 C38.7129611,10.9939881 38.3939987,11.3166335 38.1340996,11.7137416 L38.1340996,16.3487135 C38.1340996,16.5348579 38.0691258,16.6961806 37.9391762,16.8326865 C37.8092267,16.9691924 37.6556522,17.0374443 37.4784483,17.0374443 C37.3012443,17.0374443 37.1476699,16.9691924 37.0177203,16.8326865 C36.8877707,16.6961806 36.8227969,16.5348579 36.8227969,16.3487135 L36.8227969,9.81507834 C36.8227969,9.62893396 36.8848174,9.46450888 37.0088602,9.32179819 C37.1329029,9.17908749 37.2894307,9.10773322 37.4784483,9.10773322 C37.6556522,9.10773322 37.8092267,9.17598514 37.9391762,9.31249102 C38.0691258,9.4489969 38.1340996,9.61652433 38.1340996,9.81507834 L38.1340996,10.4665804 Z M42.6882184,9.57309185 C43.5033566,9.20080308 44.3480161,9.02086621 45.2222222,9.03327584 C46.2027508,9.03327584 46.9647163,9.34971654 47.5081418,9.98260745 C47.9924992,10.528631 48.240581,11.2111501 48.2523946,12.0301854 L48.2523946,16.3487135 C48.2523946,16.5348579 48.1844675,16.6961806 48.0486111,16.8326865 C47.9127547,16.9691924 47.7503202,17.0374443 47.5613027,17.0374443 C47.3840987,17.0374443 47.2305243,16.9691924 47.1005747,16.8326865 C46.9706251,16.6961806 46.9056513,16.5348579 46.9056513,16.3487135 L46.9056513,15.9578123 C46.6457522,16.2432337 46.2972563,16.5069343 45.8601533,16.7489219 C45.4230502,16.9909096 44.8678195,17.1119017 44.1944444,17.1119017 C43.5210694,17.1119017 42.959932,16.9071459 42.5110153,16.4976283 C42.0502851,16.075701 41.8199234,15.523481 41.8199234,14.8409516 C41.8199234,14.0839644 42.091632,13.4883113 42.6350575,13.0539744 C43.2257373,12.5824086 44.0644901,12.352834 45.151341,12.3652436 L46.9056513,12.3652436 L46.9056513,12.2349432 C46.9056513,11.5524138 46.7491235,11.0684457 46.4360632,10.7830243 C46.1230029,10.4976029 45.6356993,10.3548944 44.9741379,10.3548944 C44.4188989,10.3548944 43.7750675,10.472784 43.0426245,10.7085669 C42.9717429,10.7333862 42.8860956,10.7457956 42.7856801,10.7457956 C42.6852645,10.7457956 42.5818971,10.6930555 42.4755747,10.5875737 C42.3692523,10.4820918 42.3131386,10.3145644 42.3072318,10.0849863 C42.301325,9.85540827 42.4283193,9.68477848 42.6882184,9.57309185 Z M43.1489464,14.6734225 C43.1489464,15.4924577 43.6628301,15.8957645 44.690613,15.8833549 C45.1395297,15.8833549 45.5618595,15.7685676 45.9576149,15.5389895 C46.3533704,15.3094114 46.6693794,15.0519156 46.9056513,14.7664942 L46.9056513,13.4821044 L45.3462644,13.4821044 C44.6610758,13.4821044 44.1235652,13.5720728 43.7337165,13.7520124 C43.3438678,13.9319519 43.1489464,14.2390856 43.1489464,14.6734225 Z M51.7787356,10.1873652 C52.499365,9.41796846 53.3292578,9.03327584 54.2684387,9.03327584 C55.2076196,9.03327584 56.0079788,9.38074014 56.6695402,10.0756792 C57.4019832,10.845076 57.7741059,11.8440358 57.7859195,13.0725888 C57.7859195,14.3135513 57.4137968,15.3187159 56.6695402,16.0881127 C55.9843516,16.7830517 55.1780857,17.1274137 54.2507184,17.1212089 C53.323351,17.115004 52.499365,16.7272091 51.7787356,15.9578123 L51.7787356,19.8482104 C51.7787356,20.0467644 51.7167152,20.2142919 51.5926724,20.3507978 C51.4686296,20.4873036 51.3121018,20.5555556 51.1230843,20.5555556 C50.9340667,20.5555556 50.7775389,20.4873036 50.6534962,20.3507978 C50.5294534,20.2142919 50.467433,20.0467644 50.467433,19.8482104 L50.467433,9.79646399 C50.467433,9.61031961 50.5294534,9.4489969 50.6534962,9.31249102 C50.7775389,9.17598514 50.9340667,9.10773322 51.1230843,9.10773322 C51.3121018,9.10773322 51.4686296,9.17288278 51.5926724,9.30318384 C51.7167152,9.43348491 51.7787356,9.59790998 51.7787356,9.79646399 L51.7787356,10.1873652 Z M51.7787356,14.6734225 C52.440297,15.4428192 53.2081693,15.8213071 54.0823755,15.8088975 C55.1928536,15.8088975 55.9311923,15.2939058 56.2974138,14.2639069 C56.4155498,13.9164373 56.4687101,13.5193353 56.4568966,13.0725888 C56.4568966,12.203915 56.2383483,11.5213958 55.8012452,11.0250108 C55.3759557,10.5658546 54.8030049,10.33628 54.0823755,10.33628 C53.2081693,10.33628 52.440297,10.7147679 51.7787356,11.4717551 L51.7787356,14.6734225 Z M60.9224138,10.1873652 C61.6430432,9.41796846 62.4729359,9.03327584 63.4121169,9.03327584 C64.3512978,9.03327584 65.151657,9.38074014 65.8132184,10.0756792 C66.5456614,10.845076 66.9177841,11.8440358 66.9295977,13.0725888 C66.9295977,14.3135513 66.557475,15.3187159 65.8132184,16.0881127 C65.1280298,16.7830517 64.3217639,17.1274137 63.3943966,17.1212089 C62.4670292,17.115004 61.6430432,16.7272091 60.9224138,15.9578123 L60.9224138,19.8482104 C60.9224138,20.0467644 60.8603933,20.2142919 60.7363506,20.3507978 C60.6123078,20.4873036 60.45578,20.5555556 60.2667625,20.5555556 C60.0777449,20.5555556 59.9212171,20.4873036 59.7971743,20.3507978 C59.6731316,20.2142919 59.6111111,20.0467644 59.6111111,19.8482104 L59.6111111,9.79646399 C59.6111111,9.61031961 59.6731316,9.4489969 59.7971743,9.31249102 C59.9212171,9.17598514 60.0777449,9.10773322 60.2667625,9.10773322 C60.45578,9.10773322 60.6123078,9.17288278 60.7363506,9.30318384 C60.8603933,9.43348491 60.9224138,9.59790998 60.9224138,9.79646399 L60.9224138,10.1873652 Z M60.9224138,14.6734225 C61.5839752,15.4428192 62.3518475,15.8213071 63.2260536,15.8088975 C64.3365317,15.8088975 65.0748705,15.2939058 65.441092,14.2639069 C65.5592279,13.9164373 65.6123883,13.5193353 65.6005747,13.0725888 C65.6005747,12.203915 65.3820265,11.5213958 64.9449234,11.0250108 C64.5196339,10.5658546 63.946683,10.33628 63.2260536,10.33628 C62.3518475,10.33628 61.5839752,10.7147679 60.9224138,11.4717551 L60.9224138,14.6734225 Z M71.11159,15.8275119 C72.1866273,15.8275119 72.7182312,15.4738428 72.7064176,14.7664942 C72.7064176,14.5431209 72.6000968,14.3693888 72.3874521,14.2452925 C72.1748074,14.1211963 71.9090054,14.015716 71.5900383,13.9288486 C71.2710712,13.8419813 70.9225753,13.7489105 70.5445402,13.6496335 C70.1665051,13.5503565 69.8121025,13.4138526 69.4813218,13.2401179 C69.1505411,13.0663831 68.8788325,12.8399108 68.6661877,12.5606943 C68.453543,12.2814777 68.3472222,11.9371157 68.3472222,11.5275981 C68.3472222,11.1180805 68.4062893,10.7675138 68.5244253,10.4758876 C68.6425613,10.1842614 68.8197625,9.93297025 69.0560345,9.72200661 C69.5640191,9.26285047 70.2728243,9.03327584 71.1824713,9.03327584 C71.9149143,9.03327584 72.6178127,9.15737023 73.2911877,9.40556274 C73.4211373,9.45520124 73.5245047,9.53896496 73.6012931,9.6568564 C73.6780815,9.77474785 73.7164751,9.89884224 73.7164751,10.0291433 C73.7164751,10.1594444 73.6603614,10.2866411 73.5481322,10.4107374 C73.435903,10.5348336 73.3266289,10.5968808 73.2203065,10.5968808 C73.1139841,10.5968808 72.9840365,10.572062 72.8304598,10.5224235 C72.3697295,10.373508 71.8617525,10.2990513 71.3065134,10.2990513 C70.7512744,10.2990513 70.331898,10.3983268 70.0483716,10.5968808 C69.7648453,10.7954348 69.6230843,11.0405213 69.6230843,11.3321475 C69.6230843,11.6237737 69.7294051,11.8347341 69.9420498,11.9650352 C70.1546945,12.0953363 70.4234498,12.2101236 70.7483238,12.3094006 C71.0731977,12.4086776 71.4276003,12.5017484 71.8115421,12.5886158 C72.195484,12.6754832 72.5469333,12.8057823 72.8659004,12.979517 C73.6219706,13.3890347 74,14.0157114 74,14.8595659 C74,15.5172761 73.7637316,16.0446772 73.2911877,16.4417853 C72.7950167,16.8885318 72.0921182,17.1119017 71.1824713,17.1119017 C70.2137563,17.1119017 69.3395633,16.8823271 68.5598659,16.4231709 C68.3944755,16.2990747 68.3088283,16.147059 68.3029215,15.9671194 C68.2970147,15.7871799 68.350175,15.6320619 68.4624042,15.5017608 C68.5746334,15.3714597 68.6898142,15.3063102 68.8079502,15.3063102 C68.9260862,15.3063102 69.0796606,15.3497432 69.2686782,15.4366106 C69.8239172,15.6972127 70.438215,15.8275119 71.11159,15.8275119 Z" id="Grapps"></path>
                <g id="ícone" fill-rule="nonzero">
                    <ellipse id="Oval" cx="14.4528086" cy="6.35237899" rx="5.89010331" ry="6.35237899"></ellipse>
                    <ellipse id="Oval" cx="13.7003284" cy="16.2587321" rx="5.89010331" ry="6.35237899"></ellipse>
                    <ellipse id="Oval" cx="5.89010331" cy="10.7178905" rx="5.89010331" ry="6.35237899"></ellipse>
                </g>
            </g>
        </g>
    </g>
</svg>