<?xml version="1.0" encoding="UTF-8"?>
<svg width="49px" height="50px" viewBox="0 0 49 50" version="1.1" xmlns="http://www.w3.org/2000/svg" xmlns:xlink="http://www.w3.org/1999/xlink">
    <!-- Generator: Sketch 48.2 (47327) - http://www.bohemiancoding.com/sketch -->
    <title>ícone-sistemweb</title>
    <desc>Created with Sketch.</desc>
    <defs></defs>
    <g id="Mobile-INICIAL" stroke="none" stroke-width="1" fill="none" fill-rule="evenodd" transform="translate(-58.000000, -942.000000)">
        <g id="Produtos" transform="translate(0.000000, 438.000000)" fill="#6930A6" fill-rule="nonzero">
            <g id="card-sistemas-web" transform="translate(29.000000, 469.000000)">
                <g id="conteúdo" transform="translate(29.000000, 25.000000)">
                    <g id="ícone-sistemweb" transform="translate(0.000000, 10.000000)">
                        <ellipse id="Oval" cx="9.52941176" cy="1.92668622" rx="1" ry="1"></ellipse>
                        <ellipse id="Oval" cx="11.4352941" cy="1.92668622" rx="1" ry="1"></ellipse>
                        <ellipse id="Oval" cx="13.3411765" cy="1.92668622" rx="1" ry="1"></ellipse>
                        <ellipse id="Oval" cx="24.7764706" cy="39.8181818" rx="1.27058824" ry="1.28445748"></ellipse>
                        <path d="M18.4235294,14.771261 L18.4235294,5.78005865 L9.52941176,5.78005865 L9.52941176,14.771261 L18.4235294,14.771261 Z M10.5967486,6.85904609 L17.3561926,6.85904609 L17.3561926,13.6922736 L10.5967486,13.6922736 L10.5967486,6.85904609 Z" id="Shape"></path>
                        <path d="M29.2235294,5.78005865 L20.3294118,5.78005865 L20.3294118,14.771261 L29.2235294,14.771261 L29.2235294,5.78005865 Z M28.1561926,13.6922736 L21.3967486,13.6922736 L21.3967486,6.85904609 L28.1561926,6.85904609 L28.1561926,13.6922736 Z" id="Shape"></path>
                        <path d="M39.3882353,5.78005865 L30.4941176,5.78005865 L30.4941176,14.771261 L39.3882353,14.771261 L39.3882353,5.78005865 Z M38.3208985,13.6922736 L31.5614545,13.6922736 L31.5614545,6.85904609 L38.3208985,6.85904609 L38.3208985,13.6922736 Z" id="Shape"></path>
                        <rect id="Rectangle-path" x="11.4352941" y="31.4692082" width="26.6823529" height="1.28445748"></rect>
                        <rect id="Rectangle-path" x="11.4352941" y="29.542522" width="26.6823529" height="1.28445748"></rect>
                        <rect id="Rectangle-path" x="11.4352941" y="26.973607" width="26.6823529" height="1.28445748"></rect>
                        <rect id="Rectangle-path" x="11.4352941" y="25.0469208" width="26.6823529" height="1.28445748"></rect>
                        <path d="M45.6633816,11.6377422 L41.3290542,11.6377422 L41.3290542,0 L6.92087232,0 L6.92087232,11.6377422 L2.61897136,11.6377422 C1.17491617,11.6377422 0,12.8943766 0,14.438383 L0,40.9914469 C0,42.4596266 1.17491617,43.6541711 2.61897136,43.6541711 L18.6181517,43.6541711 L18.6181517,45.3377425 C18.6181517,45.43335 18.5770783,47.6740824 14.9847748,47.6740824 L14.444335,47.6740824 L14.444335,49.4516129 L33.8893597,49.4516129 L33.8893597,47.6740824 L33.3489199,47.6740824 C29.800392,47.6740824 29.7182452,45.4284048 29.7166239,45.3377425 L29.7166239,43.6541711 L45.6628411,43.6541711 C47.1074368,43.6541711 48.2823529,42.4596266 48.2823529,40.9914469 L48.2823529,14.438383 C48.2823529,12.8943766 47.1074368,11.6377422 45.6633816,11.6377422 Z M8.00175195,23.6271442 L40.2481746,23.6271442 L40.2481746,33.792311 L8.00175195,33.792311 L8.00175195,23.6271442 Z M40.2481746,22.5282073 L8.00175195,22.5282073 L8.00175195,17.0335226 L40.2481746,17.0335226 L40.2481746,22.5282073 Z M40.2481746,15.9345857 L8.00175195,15.9345857 L8.00175195,3.98364641 L40.2481746,3.98364641 L40.2481746,15.9345857 Z M40.2481746,1.09893694 L40.2481746,2.88470947 L8.00175195,2.88470947 L8.00175195,1.09893694 L40.2481746,1.09893694 Z M2.61897136,12.7366792 L6.92087232,12.7366792 L6.92087232,34.8912479 L41.3290542,34.8912479 L41.3290542,12.7366792 L45.6633816,12.7366792 C46.5113317,12.7366792 47.2020137,13.4998909 47.2020137,14.438383 L47.2020137,35.8242454 L1.08087964,35.8242454 L1.08087964,14.438383 C1.08087964,13.4998909 1.77156172,12.7366792 2.61897136,12.7366792 Z M30.9055915,48.3532254 L17.4356694,48.3532254 C19.6660646,47.4427562 19.6990314,45.3652159 19.6990314,45.3382919 L19.6990314,43.6371375 L28.6362847,43.6371375 L28.6362847,45.3382919 C28.6362847,45.4306026 28.6530383,46.2646958 29.262114,47.1064815 C29.5755691,47.5394626 30.0846634,48.0202475 30.9055915,48.3532254 Z M45.6633816,42.5552341 L2.61897136,42.5552341 C1.77156172,42.5552341 1.08087964,41.8535629 1.08087964,40.9914469 L1.08087964,36.9231823 L47.2014733,36.9231823 L47.2014733,40.9914469 C47.2014733,41.8535629 46.5113317,42.5552341 45.6633816,42.5552341 Z" id="Shape"></path>
                    </g>
                </g>
            </g>
        </g>
    </g>
</svg>