<?xml version="1.0" encoding="UTF-8"?>
<svg width="32px" height="52px" viewBox="0 0 32 52" version="1.1" xmlns="http://www.w3.org/2000/svg" xmlns:xlink="http://www.w3.org/1999/xlink">
    <!-- Generator: Sketch 48.2 (47327) - http://www.bohemiancoding.com/sketch -->
    <title>ícone-app</title>
    <desc>Created with Sketch.</desc>
    <defs></defs>
    <g id="Mobile-INICIAL" stroke="none" stroke-width="1" fill="none" fill-rule="evenodd" transform="translate(-66.000000, -759.000000)">
        <g id="Produtos" transform="translate(0.000000, 438.000000)" fill="#6930A6" fill-rule="nonzero">
            <g id="card-aplicativos" transform="translate(29.000000, 287.000000)">
                <g id="conteúdo" transform="translate(37.000000, 25.000000)">
                    <g id="ícone-app" transform="translate(0.000000, 9.000000)">
                        <path d="M3.07692308,0 C1.38294769,0 0,1.35883193 0,3.02325441 L0,48.9767456 C0,50.6411681 1.38294769,52 3.07692308,52 L28.9230769,52 C30.6170523,52 32,50.6411681 32,48.9767456 L32,3.02325441 C32,1.35883193 30.6170523,0 28.9230769,0 L3.07692308,0 Z M3.07692308,1.20930176 L28.9230769,1.20930176 C29.9564985,1.20930176 30.7692308,2.00786418 30.7692308,3.02325441 L30.7692308,6.04650882 L1.23076923,6.04650882 L1.23076923,3.02325441 C1.23076923,2.00786418 2.04350154,1.20930176 3.07692308,1.20930176 Z M1.23076923,7.25581058 L30.7692308,7.25581058 L30.7692308,42.3255859 L1.23076923,42.3255859 L1.23076923,7.25581058 Z M15.9807692,13.9069703 C15.8780277,13.9145987 15.7788727,13.9470635 15.6923077,14.0014167 L7.07692308,18.8385936 C6.88953615,18.9445028 6.77280915,19.1380554 6.76923077,19.348798 L6.76923077,29.0232665 C6.77280915,29.2340091 6.88953615,29.4275617 7.07692308,29.5334709 L15.6923077,34.370678 C15.7732257,34.4221938 15.8654369,34.4545416 15.9615385,34.4651244 C16.0839932,34.4676611 16.2044663,34.4347905 16.3076923,34.370678 L24.9230769,29.5334709 C25.1104638,29.4275617 25.2271908,29.2340091 25.2307692,29.0232665 L25.2307692,19.348798 C25.2271908,19.1380554 25.1104638,18.9445028 24.9230769,18.8385936 L16.3076923,14.0014167 C16.2099703,13.9407678 16.0966908,13.9080419 15.9807692,13.9069703 Z M16,15.2107185 L23.3653846,19.348798 L16,23.4869077 L8.63461538,19.348798 L16,15.2107185 Z M8.01923077,20.3880719 L15.3846154,24.5261212 L15.3846154,32.8211996 L8.01923077,28.6830899 L8.01923077,20.3880719 Z M23.9807692,20.3880719 L23.9807692,28.6830899 L16.6153846,32.8211996 L16.6153846,24.5261212 L23.9807692,20.3880719 Z M1.23076923,43.5348877 L30.7692308,43.5348877 L30.7692308,48.9767456 C30.7692308,49.9921358 29.9564985,50.7906982 28.9230769,50.7906982 L3.07692308,50.7906982 C2.04350154,50.7906982 1.23076923,49.9921358 1.23076923,48.9767456 L1.23076923,43.5348877 Z M16,45.3488403 C14.9804308,45.3488403 14.1538462,46.1609469 14.1538462,47.1627929 C14.1538462,48.1645785 14.9804308,48.9767456 16,48.9767456 C17.0196308,48.9767456 17.8461538,48.1645785 17.8461538,47.1627929 C17.8461538,46.1609469 17.0196308,45.3488403 16,45.3488403 Z" id="Shape"></path>
                    </g>
                </g>
            </g>
        </g>
    </g>
</svg>