<?xml version="1.0" encoding="UTF-8"?>
<svg width="66px" height="52px" viewBox="0 0 66 52" version="1.1" xmlns="http://www.w3.org/2000/svg" xmlns:xlink="http://www.w3.org/1999/xlink">
    <!-- Generator: Sketch 48.2 (47327) - http://www.bohemiancoding.com/sketch -->
    <title>ícone-ecommerce</title>
    <desc>Created with Sketch.</desc>
    <defs></defs>
    <g id="Mobile-INICIAL" stroke="none" stroke-width="1" fill="none" fill-rule="evenodd" transform="translate(-49.000000, -577.000000)">
        <g id="Produtos" transform="translate(0.000000, 438.000000)" fill="#6930A6" fill-rule="nonzero">
            <g id="card-site" transform="translate(29.000000, 105.000000)">
                <g id="conteúdo" transform="translate(20.000000, 25.000000)">
                    <g id="ícone-ecommerce" transform="translate(0.000000, 9.000000)">
                        <path d="M52.0169492,30.5234657 C53.3389831,25.9747292 52.6271186,24.5595668 51.3050847,23.0433213 C50.5932203,22.133574 49.8813559,21.3249097 49.8813559,19 L48.3559322,19 C48.3559322,21.9314079 49.3728814,23.1444043 50.0847458,24.0541516 C51,25.166065 51.7118644,25.9747292 50.3898305,30.5234657 C47.3389831,30.8267148 45,33.3537906 45,36.4873646 L45,41.0361011 C45,44.3718412 47.7457627,47 51,47 C54.3559322,47 57,44.2707581 57,41.0361011 L57,36.4873646 C57,33.4548736 54.8644068,31.0288809 52.0169492,30.5234657 Z M55.4745763,40.9350181 C55.4745763,43.3610108 53.440678,45.3826715 51,45.3826715 C48.559322,45.3826715 46.5254237,43.3610108 46.5254237,40.9350181 L46.5254237,36.3862816 C46.5254237,33.9602888 48.559322,31.9386282 51,31.9386282 C53.440678,31.9386282 55.4745763,33.9602888 55.4745763,36.3862816 L55.4745763,40.9350181 Z" id="Shape"></path>
                        <rect id="Rectangle-path" x="50" y="35" width="2" height="2"></rect>
                        <path d="M0,0 L0,52 L66,52 L66,0 L0,0 Z M64.4885496,1.54455446 L64.4885496,7.92871287 L1.51145038,7.92871287 L1.51145038,1.54455446 L64.4885496,1.54455446 Z M1.51145038,50.5584158 L1.51145038,9.47326733 L64.4885496,9.47326733 L64.4885496,50.4554455 L1.51145038,50.4554455 L1.51145038,50.5584158 Z" id="Shape"></path>
                        <rect id="Rectangle-path" x="50" y="4" width="2" height="2"></rect>
                        <rect id="Rectangle-path" x="57" y="4" width="2" height="2"></rect>
                        <rect id="Rectangle-path" x="53" y="4" width="2" height="2"></rect>
                        <rect id="Rectangle-path" x="6" y="4" width="39" height="2"></rect>
                        <path d="M34.3214286,19.779661 L7,19.779661 L11.25,34.4915254 L29.9702381,34.4915254 L28.9583333,38.0644068 C28.8571429,38.0644068 28.8571429,38.0644068 28.7559524,38.0644068 L14.7916667,38.0644068 C12.9702381,38.0644068 11.452381,39.640678 11.452381,41.5322034 C11.452381,43.4237288 12.9702381,45 14.7916667,45 C16.6130952,45 18.1309524,43.4237288 18.1309524,41.5322034 C18.1309524,40.7966102 17.9285714,40.1661017 17.625,39.640678 L26.0238095,39.640678 C25.7202381,40.1661017 25.5178571,40.7966102 25.5178571,41.5322034 C25.5178571,43.4237288 27.0357143,45 28.8571429,45 C30.6785714,45 32.1964286,43.4237288 32.1964286,41.5322034 C32.1964286,40.2711864 31.4880952,39.1152542 30.577381,38.5898305 L31.7916667,34.5966102 L36.0416667,19.8847458 L37.2559524,15.6813559 L41,15.6813559 L41,14 L36.1428571,14 L34.3214286,19.779661 Z M16.6130952,41.4271186 C16.6130952,42.4779661 15.8035714,43.3186441 14.7916667,43.3186441 C13.7797619,43.3186441 12.9702381,42.4779661 12.9702381,41.4271186 C12.9702381,40.3762712 13.7797619,39.5355932 14.7916667,39.5355932 C15.8035714,39.5355932 16.6130952,40.3762712 16.6130952,41.4271186 Z M28.7559524,43.3186441 C27.7440476,43.3186441 26.9345238,42.4779661 26.9345238,41.4271186 C26.9345238,40.3762712 27.7440476,39.5355932 28.7559524,39.5355932 C29.7678571,39.5355932 30.577381,40.3762712 30.577381,41.4271186 C30.577381,42.4779661 29.7678571,43.3186441 28.7559524,43.3186441 Z M32.3988095,26.2949153 L28.1488095,26.2949153 L28.8571429,21.3559322 L33.8154762,21.3559322 L32.3988095,26.2949153 Z M20.6607143,27.8711864 L20.6607143,32.8101695 L17.2202381,32.8101695 L16.5119048,27.8711864 L20.6607143,27.8711864 Z M16.3095238,26.2949153 L15.6011905,21.3559322 L20.6607143,21.3559322 L20.6607143,26.2949153 L16.3095238,26.2949153 Z M22.1785714,27.8711864 L26.327381,27.8711864 L25.6190476,32.8101695 L22.1785714,32.8101695 L22.1785714,27.8711864 Z M22.1785714,26.2949153 L22.1785714,21.3559322 L27.2380952,21.3559322 L26.5297619,26.2949153 L22.1785714,26.2949153 Z M14.0833333,21.3559322 L14.7916667,26.2949153 L10.4404762,26.2949153 L9.02380952,21.3559322 L14.0833333,21.3559322 Z M10.9464286,27.8711864 L14.9940476,27.8711864 L15.702381,32.8101695 L12.3630952,32.8101695 L10.9464286,27.8711864 Z M27.1369048,32.8101695 L27.8452381,27.8711864 L31.8928571,27.8711864 L30.4761905,32.8101695 L27.1369048,32.8101695 Z" id="Shape"></path>
                    </g>
                </g>
            </g>
        </g>
    </g>
</svg>